<?xml version="1.0" encoding="utf-8"?>
<!-- Generator: Adobe Illustrator 25.2.3, SVG Export Plug-In . SVG Version: 6.00 Build 0)  -->
<svg version="1.1" id="Layer_1" xmlns="http://www.w3.org/2000/svg" xmlns:xlink="http://www.w3.org/1999/xlink" x="0px" y="0px"
	 viewBox="0 0 864 864" style="enable-background:new 0 0 864 864;" xml:space="preserve">
<style type="text/css">
	.st0{fill:#9AD4DD;}
	.st1{fill:#F5C9D7;}
	.st2{fill:#C5ABCD;}
	.st3{fill:#FBB883;}
</style>
<path class="st0" d="M468.9,373.4c10.8-2.5,21.8-4.4,32.8-5.9c2.1-0.3,4.3-0.4,6.4-0.6h0.2c-1-0.8-2.4-1.2-3.3-2.2
	c-5.6-5.9-8.4-14.3-8.4-25.1V151.2c0-10.9,2.8-19.2,8.4-25.1c5.6-5.9,13.3-8.9,23.2-8.9c9.9,0,17.6,3,23.2,8.9
	c5.6,5.9,8.4,14.3,8.4,25.1v188.3c0,10.8-2.8,19.2-8.4,25.1c-0.7,0.6-1.5,1.1-2.3,1.5c11.1-0.4,21.2-1.3,29.6-2.4l4.8-0.6
	c5.4-0.6,10.8-1.2,16.1-2.4c3.9-0.9,7.3-2.1,10.8-3.2c1-5.9,1.5-12,1.5-18V151.2c0-25-7.7-45.1-23.2-60.4s-35.7-22.9-60.6-22.9
	c-25,0-45.2,7.6-60.6,22.9c-15.5,15.3-23.2,35.4-23.1,60.4v188.3c-0.2,13.4,2.7,26.6,8.3,38.7C457.9,376.3,463.3,374.6,468.9,373.4z
	"/>
<path class="st0" d="M667.8,354.4c2.2,0,9.6,0.8,11.9,10.6c1.5,6.2,2.8,12.4,4,18.6l3.3,17.1c0.8,4,1.2,6.2,1.5,8.4
	c1.8,2.9,3.2,5.8,5,8.7H717v-104l19.7-38l54.7,142h56.2l-78.9-198.7l73.5-146.4H786l-69,140v-140h-52.3v282.4
	C665.7,354.8,666.7,354.5,667.8,354.4z"/>
<path class="st0" d="M236.4,336.6c2.2-3.4,5.9-5.4,9.9-5.4c3,0.3,6,1.4,8.4,3.2l4.2,3.4c6.2,5.3,14,9.2,23.3,12.3
	c-0.9-3.5-1.4-7.1-1.5-10.7V151.2c0-10.9,2.8-19.2,8.4-25.1c5.6-5.9,13.3-8.9,23.2-8.9c9.9,0,17.6,3,23.2,8.9s8.4,14.3,8.4,25.1
	v188.3c0.1,7.3-1.8,14.4-5.7,20.6c8.6,1,17.2,1.9,25.6,3.6c9.2,1.9,18.3,4.4,27.1,7.4c3.5-10.2,5.3-20.9,5.2-31.7V151.2
	c0-25-7.7-45.1-23.2-60.4c-15.4-15.3-35.7-22.9-60.6-22.9c-25,0-45.2,7.6-60.6,22.9s-23.2,35.4-23.1,60.4v181.2
	C232,334.2,236.4,336.6,236.4,336.6z"/>
<path class="st1" d="M494.8,524.9c-1.4,0.1-11.4,0.6-11.4,0.6l-10,0.2c-1.5,1.8-4.8,3.3-9,3.7l-4.4,0.2c-2.3,0.1-4.5,0.2-6.8,0.3
	l-29,199.6l-29.4-201.9c-2.8-0.9-5.3-2.7-7.2-5c-6.9-0.7-12.7-1-16.7-1.1c-7.2-0.2-14.4-0.2-21.6-0.4L394.1,792h59.1l44.3-267.2
	C496.6,524.8,495.7,524.8,494.8,524.9z"/>
<path class="st0" d="M163.3,395.5c14.8-15,22.2-34.9,22.2-59.9v-28.1c0-16.4-3.4-30.4-10.1-41.9c-6.7-11.5-16.5-20.2-29.3-26.1
	c23.3-13.1,35-35.2,35-66.1v-18.2c0-25-7.4-44.9-22.2-59.9s-34.7-22.4-59.7-22.4H16.4v345.1h87.3
	C128.7,417.9,148.5,410.4,163.3,395.5z M68.7,122.1h28.1c10.2,0,18.1,2.8,23.7,8.4c5.6,5.6,8.4,13.5,8.4,23.7v24.6
	c0,12.5-3,21.8-9.1,27.9c-6.1,6.1-15.4,9.1-27.9,9.1H68.7V122.1z M68.7,368.6V265.1h27.6c12.5,0,21.8,3,27.8,9.1s9.1,15.4,9.1,27.8
	v34.5c0,10.2-2.8,18.1-8.4,23.7c-5.6,5.6-13.5,8.4-23.7,8.4L68.7,368.6z"/>
<path class="st1" d="M828.2,637.6c5.2-10.3,7.8-22,7.8-35.4v-32c0-21.1-6.2-37.9-18.7-50.5C804.8,507,788,500.7,767,500.7h-27.7
	c1.5,2.5,3.1,5.4,3.1,9.5c0,8.9-5.6,11.8-10.2,12.7c-0.4,0.1-3,0.4-3.4,0.4c-8.2,0.5-15.8,0.7-23.5,0.7c-1.8,0-4.5,0-7.4-0.1V792
	H742V671.7h22.9l32,120.3h45.8l-37-130.3C815.3,655.9,823.1,647.6,828.2,637.6z M791.9,603c0,8.6-2.4,15.3-7.1,20s-11.4,7.1-20,7.1
	H742v-87.8h22.9c8.6,0,15.3,2.4,20,7.1c4.7,4.7,7.1,11.4,7.1,20L791.9,603z"/>
<path class="st1" d="M660.9,542.3v-19.2c-7.9-0.2-15.8-0.4-23.7-0.8c-3.8-0.2-7.8-0.3-11.7-0.3c-5.2,0-10.5,0.2-15.7,0.3
	c-6.3,0.2-12.6,0.3-18.9,0.3c-6.1,0-12.2,0.1-18.3,0.3c-5.7,0.2-11.5,0.3-17.2,0.3l-15.7-0.1c-1.3,0-2.7,0-4,0.1V792h125.3v-41.7
	h-81.1V665h64.5v-41.6h-64.5v-81.1H660.9z"/>
<path class="st1" d="M293.6,520h-5c-13.6,0-27.2,0.2-40.8,0.8l-11.9,0.5c-10.5,0.4-20.9,0.9-31.4,1.1c-5.5,0.1-11,0.5-16.5,0.8
	c-8.9,11.8-13.6,26.3-13.6,43.7v158.9c0,21.1,6.5,38.1,19.5,51s30.1,19.4,51.2,19.3c21.1,0,38.1-6.5,51.2-19.3s19.6-29.9,19.5-51
	v-159c0-18.9-5.5-34.4-16.1-46.7C297.8,520.1,295.7,520,293.6,520z M271.8,725.8c0,9.1-2.4,16.2-7.1,21.2c-4.7,5-11.2,7.5-19.6,7.5
	s-14.8-2.5-19.6-7.5s-7.1-12.1-7.1-21.2v-159c0-9.2,2.3-16.2,7.1-21.2s11.2-7.5,19.6-7.5s14.8,2.5,19.6,7.5s7.1,12,7.1,21.2V725.8z"
	/>
<polygon class="st1" points="65.4,500.7 21.3,500.7 21.3,792 144.1,792 144.1,750.3 65.4,750.3 "/>
<path class="st2" d="M730.5,504.5c-7.9-14.7-15.9-29.3-23.8-44c-8.4-15.5-16.9-30.8-26.1-45.8c-0.9-1.3-1.5-2.8-1.7-4.4
	c-0.3-2.6-0.9-5.3-1.4-7.9c-1-5.7-2.1-11.3-3.2-17c-1.2-6.1-2.5-12.2-4-18.3c-0.8-3.4-2-3.9-5.1-2.5c-2.3,1.1-4.6,2.4-6.9,3.4
	c-5.9,2.5-4.8,3.2-6.5-3.5c-1.1-4-1.9-8.1-3-12.1c-0.6-2.3-1.4-2.6-3.5-1.5c-2.4,1.4-4.8,2.9-7.1,4.4c-11.2,7.4-23.6,11.8-36.6,14.6
	c-7.2,1.6-14.5,2.2-21.8,3.1c-13.4,1.7-26.8,3.1-40.4,2.9c-5.3-0.1-10.6,0.1-15.9,0.1c-3.7,0-11.5,0-15,0.2h0
	c-1.9,0.1-3.7,0.2-5.6,0.5c-10.7,1.5-21.4,3.3-31.9,5.8c-9.6,2.3-19,5.3-27.7,10.4c-4.5,2.6-8.6,5.7-12.4,9.2
	c-1.1,1.1-1.9,1.1-2.9,0c-0.3-0.3-0.6-0.6-0.9-0.8c-5-4.5-10.6-8.4-16.6-11.5c-15.4-7.8-31.8-13.5-48.8-16.8
	c-11.1-2.1-22.3-3.7-33.6-4.8c-1.6-0.2-3.2-0.3-5-0.4l0,0c-1.7-0.1-4.1-0.4-6.3-0.7c-0.2,0-0.4-0.1-0.6-0.1
	c-11.4-1.1-22.6-3.3-33.5-6.5c-11-3.2-21.2-7.9-30-15.4c-1.4-1.2-2.9-2.4-4.4-3.6c-1-1.1-2.7-1.1-3.8-0.1c-0.4,0.3-0.6,0.8-0.7,1.3
	c-0.5,1.8-1.5,3.4-1.8,5.3c-0.2,1.3-0.9,1.6-2.1,1.1c-2.3-1.2-4.6-2.3-6.9-3.5c-4.1-2.1-8-4.3-12.1-6.3c-3.4-1.6-4.3-1.1-5.3,2.4
	c-0.7,2.9-1.3,5.8-1.5,8.8c-0.1,2.3-0.6,4.5-1.4,6.6c-1.5,0-2.6-0.7-3.7-1.3c-2.8-1.2-5.6-2.6-8.4-3.8c-2.1-0.9-3.1-0.4-3.9,1.8
	c-0.5,1.2-0.8,2.5-1,3.7c-0.8,6-1.6,12-2.4,18c-0.5,3.7-1.1,7.2-3.1,10.5c-1,1.6-1.8,3.3-2.6,5c-6,12-12.1,23.9-18,35.9
	c-4.8,9.6-9.5,19.2-14.1,28.9c-4.8,10-9.6,20-14.2,30.1c-2.7,5.8-5.6,11.6-7.5,17.8c-1,2.7-1.8,5.5-2.3,8.3c-0.3,2.3,0.1,3,2.2,3.4
	c1.6,0.4,3.3,0.6,5,0.6c9.9-0.5,19.9-0.7,29.8-1.4c12-0.8,24-1.6,36-1.9c14.4-0.3,28.8-1,43.2-1.6c15.4-0.6,30.8-0.8,46.2-0.7
	c25.8,0.1,51.7,0.7,77.5,1.6c4.7,0.2,11.7,0.5,19.8,1.4c1.6,0,3,1,3.7,2.5c1.1,2.5,3.3,3.6,6,3.7c2.7,0.2,5.3,0.3,8,0.3
	c10.2-0.7,20.4,0.2,30.6,0.7c8.2,0.4,16.2-0.3,24.4-0.7c1.2,0,2.4-0.4,3.2-1.3c1.7-2,4-2.4,6.5-2.4c3.3,0,6.5-0.1,9.8-0.2
	c1.5,0,3-0.2,4.5-0.3c0.4,0,4.5-0.1,6.3-0.3c9.8-0.9,19.6-1.2,29.4-1.5c16.3-0.6,32.6,0.2,48.9-0.5c12.4-0.5,24.8-0.2,37.2-0.7
	c9.4-0.3,18.9-0.6,28.3,0s18.8,0.9,28.3,1c6.6,0,13.1,0.3,19.7,0.4c14,0.3,28,0.5,42-0.4c0.9,0,1.8-0.1,2.7-0.2
	c2.2-0.4,2.5-0.9,2.5-3.2S731.5,506.3,730.5,504.5z M687.8,436.1c6,10.5,11.4,21.4,16.9,32.1c4.8,9.3,9.6,18.7,14.3,28.1
	c0.2,0.5,0.7,0.9,0.5,1.8c-0.9-0.1-1.3-0.8-1.7-1.3c-5-6.1-9-12.8-13-19.6c-6.2-10.4-12-21-18.6-31.2c-0.3-0.6-0.6-1.2-0.8-1.9
	c-1.8-5.1-2.2-10.4-3.1-15.8C684.6,430.7,686.4,433.3,687.8,436.1z M667.9,492.4c11.9-0.1,23.8-0.3,35.7-1.4c0.7-0.1,1.4,0,2.1-0.1
	c1.5-0.3,3,0.4,3.7,1.7c1.8,2.7,4.1,5,5.7,7.9c-5.4,1.3-51.4-5-57.5-8.2C661.1,492.4,664.5,492.5,667.9,492.4L667.9,492.4z
	 M652.2,488c-10.7-1.1-21.3-2.7-31.8-4.9c-12.4-2.7-25.1-4.2-37.8-4.6c-13-0.3-26-1.1-39-1.1c-6.2,0-12.3,0.4-18.4,0.9
	c-1,0.1-2,0.1-3.6,0.2c2.6-1.3,4.8-1.4,6.9-1.7c8.8-1.3,17.7-2.2,26.7-2.6c8.7-0.6,17.5-0.6,26.2-0.1c9.6,0.7,19.2,2,28.7,3.5
	c17.6,2.8,35.2,6.3,52.7,9.8c0.7,0,1.3,0.4,1.7,0.9C660.3,488.6,656.2,488.5,652.2,488z M681.7,458.1c2.8-0.8,2.9-0.8,3.7,2
	c1.3,4.4,2.6,8.8,3.9,13.1c0.2,0.5,0.2,1,0,1.5c-3.7,0.7-37.8-6.1-44.8-9c2.7-0.9,5.4-0.8,7.9-1.1C662.2,463,672,460.9,681.7,458.1
	L681.7,458.1z M656.4,374.8c2.3-1.1,4.6-2.3,6.9-3.5c2.5-1.2,2.6-1.2,3.1,1.7c0.8,4.4,1.6,8.8,2.3,13.2c1.1,6.4,2.2,12.7,3.2,19.1
	c1.2,7.6,2.4,15.3,3.5,23c1,7.4,2.5,14.7,3.9,22c0.5,2.6,0.5,2.6-1.8,3.3c-9,2.7-18.3,4.7-27.6,6c-10.3,1.4-20.8,1.8-31.2,1.1
	c-7.5-0.5-15-1.3-22.5-2.6c-13.3-2.1-26.8-3.2-40.3-3.2c-9.1-0.1-18.3-0.4-27.4,0c-19.1,0.8-38,3.3-56.2,9.5
	c-7.9,2.7-15.5,6.2-22.7,10.4l-2.3,1.3c4.1-5.1,9.4-8.7,15.1-11.9c10.5-5.8,21.9-9.2,33.6-11.9c11.3-2.6,22.9-4.1,34.5-4.5
	c5.9-0.1,11.7,0.3,17.5,1.1c10.8,1.4,21.7,2.3,32.6,3.4c6.7,0.6,13.4,1.3,20.2,1.8c17.1,1.2,33.4-2,49.3-8
	c6.5-2.3,12.7-5.2,18.7-8.5c2.8-1.7,3.4-2.8,2.5-5.9c-1.5-5-3.2-10-4.9-15c-2.5-7.3-4.7-14.7-6.9-22.1c-1.6-5.4-3.1-10.9-4.4-16.4
	C654.6,376.4,654.9,375.5,656.4,374.8z M548.2,460.3c-2.5,1-5.2,1.2-7.8,1.6c-11.5,2-23.2,3.2-34.6,5.9
	c-13.6,3.3-26.9,7.8-39.7,13.4c-2.8,1.3-5.5,2.7-8.2,4.2c-1.2,0.7-7.1,4.8-8.4,5.8c-0.8,0.9-2.2,1-3.2,0.3c-1.8-1.2-3.7-2.2-5.7-3.5
	c2-2.6,4.5-4,7-5.6c0.9-0.6,3.3-1.9,4.3-2.5c15.5-8.6,32.2-13.9,49.6-17.3c11.2-2.1,22.7-3.1,34.1-2.8
	C539.6,460,543.9,459.7,548.2,460.3z M434.8,407c3.5-3.5,7.6-6.4,11.9-8.8c9.8-5.3,20.3-8.4,31.1-10.8c11-2.5,22-4.5,33.2-4.9l0,0
	l4.2-0.2h0.3c13.3-0.7,26.6-0.2,39.9-0.9c7.8-0.4,15.4-1.4,23.1-2.5c9.1-1.3,18.3-2.5,27.3-4.8c12.8-3.2,25.1-7.6,36.1-15
	c0.8-0.7,1.7-1.2,2.8-1.3c0.8,1.9,1.3,3.9,1.5,5.9c1.4,7.9,3.3,15.7,5.2,23.5c2.4,10,5.4,19.9,8.3,29.8c1.3,4.3,3,8.4,4.2,12.7
	c0.6,1.2,0,2.7-1.2,3.3c0,0-0.1,0-0.1,0.1c-2.3,1.4-4.7,2.5-7.2,3.6c-15.6,6.3-32.1,9.9-48.9,10.6c-14.7,0.6-29.4-0.2-44-2.4
	c-12.7-1.8-25.4-3.6-38.3-2.5c-19.7,1.7-39,5.2-57,13.8c-8.6,4.3-16.7,9.5-24.1,15.7c-1.5,1.2-2.9,2.3-4.1,3.3
	c-1.8,1.5-3.3,3.3-5.9,4.5c-0.1-2.7-0.1-5-0.2-7.4c0-1.3,0.1-2.7-0.1-4c0-4.5,0.1-10.2,0.1-13.3c0-0.1,0-0.2,0-0.4v-0.9l0,0
	c-0.1-12-0.3-24-1-36c-0.1-1.1-0.1-2.2-0.1-3.3C431.7,411.7,432.8,409,434.8,407z M246,350.6c0.2-1.1,0.6-2.1,1.1-3
	c1,0.3,1.9,0.8,2.6,1.5c3.9,2.9,8,5.6,12.1,8.1c7.7,4.7,16.2,7.4,24.9,9.7c10.5,2.6,21.1,4.5,31.8,5.7h0c3,0.4,10.4,1.2,15.5,1.8
	c7.3,0.9,14.5,1.8,21.8,3.3c17.8,3.6,35.1,8.6,51.4,16.7c5.8,2.7,11,6.5,15.5,11c1.9,1.9,3,4.5,2.9,7.2c-0.1,13.6,0,27.2,0,40.8l0,0
	c0,0.8,0,1.8,0,2.9c0,0.7,0,1.3,0,2c0,2.9,0,6.1,0,8.5c0,0.2-0.1,0.4,0,0.6c0.1,2.1,0,4.3,0,6.7c-1.7-0.5-2-1.8-2.8-2.5
	s-3-3.6-3.9-4.6c-5.8-6.1-12.8-11.1-20.6-14.5c-16.9-7.6-35.7-10.4-54.1-8c-9.5,1.2-18.9,2.5-28.4,3.5c-11.6,1.2-23.3,0.6-34.7-1.8
	c-6.9-1.4-13.8-2.9-20.3-5.8c-8.8-4-16.9-9.3-24.1-15.8c-0.7-0.6-1.5-1.3-2.2-2c-3.5-2.9-3.5-2.9-3.3-7.5c0.5-8.1,1.8-16.2,4-24
	C238.8,377.6,242.4,364.1,246,350.6z M394.3,491.6l-2.2-0.5h-0.1c-10.6-2.8-21.4-5-32.2-7.1c-16.1-3.1-32.4-5.1-48.7-6.7
	c-6.4-0.6-12.8-1.5-19.2-2.2c-11.6-1.4-23.2-1.2-34.8-0.7c-7.6,0.3-15,1.6-22.5,2.6c-10,1.3-20.1,2.3-30.1,4
	c-16.9,3-33.9,5.6-50.3,10.9c-0.6,0.4-1.3,0.4-1.9,0.1c1.5-3.9,3.5-7.6,5.9-11c0.4,0.2,0.6,0.2,0.7,0.3c0.8,3,1.3,3.4,4.3,2.7
	c4.2-1,8.3-1.9,12.5-3c9.8-2.5,19.6-5.2,29.5-7.1c5.4-1,10.8-1.7,16.2-2c6.8-0.4,13.7-1.1,20.5-1.7c0.7-0.1,1.4-0.1,2.1-0.1
	c10.9,0.5,21.6-0.8,32.4-1.3c12.8-0.4,25.6,0.1,38.4,1.6c23.6,2.5,46.5,8.4,69,15.7c3.8,1.2,7.5,2.7,11.1,4.3c0.5,0.2,1,0.4,1.5,0.5
	l2.1,0.7c-0.1,0.1-0.2,0.3-0.3,0.5c-0.1,0.1-0.2,0.3-0.4,0.4l-2.6-0.6C395,491.7,394.7,491.7,394.3,491.6L394.3,491.6z M164.1,479
	c0.3-4.4,1.8-8.3,3-12.5c1.4,0.8,2.3,2.2,3.8,2.3c1.4,0.1,2.8,0.3,4.1,0.5l18.5,2.1C191.4,473,166.9,479.3,164.1,479z M397.5,486.1
	l-0.1,0c-9.8-4.2-19.8-7.8-30-10.8c-15.7-4.5-31.9-7.6-48.2-9.3c-19-1.8-38.1-1.4-57.2-0.8c-8,0.3-16.1,0.5-24.1,0.8
	c-0.5,0.1-1.1,0-1.5-0.4c2.5-0.9,5.1-1.6,7.8-1.9c6.5-1.3,13.1-2.3,19.6-3.5c1.3-0.2,2.6-0.2,3.9,0c15.3,1.5,30.8,1.5,46.1,0
	c4.9-0.4,9.9-0.3,14.9,0.4c13.1,1.5,25.9,3.9,38.3,8.4c11.4,4,22.3,9.6,32.3,16.5c0.6,0.5,1.3,0.9,2.1,1.3l1.5,0.9l-0.5,0.4
	C400.5,487.3,398.4,486.5,397.5,486.1L397.5,486.1z M408.6,486.9L408.6,486.9l-0.5-0.4l-0.6-0.4c-0.3-0.2-0.7-0.5-1-0.7
	c-1.7-1.2-3.8-2.6-4.7-3.3l0,0c-14.5-10.7-31-18.2-48.5-22.2c11,0.1,21.8,2.1,32.1,5.8c8.6,2.9,16.9,6.5,24.8,10.8
	c1.4,0.8,2.9,1.7,3.9,2.4c2.3,1.5,4.6,3.1,6.7,4.9c0.6,0.4,1,0.9,1.2,1.6c-2,2-4.6,3.4-6.9,5.2c-0.8,0.6-1.5,0-2.1-0.4
	C411.6,489.1,410.1,488,408.6,486.9L408.6,486.9z M345.2,454.7c14.4-6.9,45.2-3.4,62.9,14.2c-9.9-4.1-20-8-30.6-10.2
	C366.9,456.5,356.1,455.2,345.2,454.7L345.2,454.7z M213.8,373.3c2-8.8,3.7-17.6,5.6-26.5c0.4-2,0.5-2.1,2.3-1.2
	c5.5,2.7,11,5.6,16.5,8.3c1.3,0.6,1.3,1.5,1,2.6c-1.9,7.2-3.7,14.4-5.5,21.6c-2.7,11-6,21.8-7.8,33c-0.4,2.2-0.6,4.5-0.8,6.8
	c-0.1,1.7,0.5,3.4,1.8,4.5c16.4,16.5,36,26.8,59.1,30.3c9.9,1.3,19.8,1.3,29.7-0.1c6.7-0.9,13.4-1.7,20.1-2.5c0.3,0,0.6,0,0.9,0.1
	c-4.7,1.6-9.6,2.8-14.5,3.6c-5.9,1.1-11.7,2.1-17.6,2.9c-6,0.7-12.1,0.9-18.1,0.4c-11.8-0.6-23.5-2.2-35.1-4.8
	c-8.4-1.9-16.7-4.6-24.6-8.1c-8.3-3.8-16.6-7.7-24.7-11.9c-3.1-1.6-2.6-1.5-1.8-4.2c3-10.5,5.6-21.1,8.1-31.7
	C209.9,388.6,212,381,213.8,373.3z M191.8,409.3c2.2-11.9,4.5-23.8,6.6-35.7c0.7-4,0.9-8.1,1.4-12.1c0.1-0.9,0.2-1.8,0.4-2.6
	c0-0.5,0.4-0.9,0.9-0.8c0.1,0,0.3,0,0.4,0.1c2.9,1.2,5.9,2.4,8.8,3.6c1,0.4,0.8,1.2,0.6,2c-1,5.1-1.9,10.3-3.1,15.5
	c-1.6,7.2-3.2,14.5-5.2,21.7c-2,7.4-4.4,14.6-6.7,21.9c-0.6,2.1-1.4,4.1-1.9,6.2c-0.7,2.4,0.1,3.9,2.8,5.6c5.4,3.5,11.1,6.6,17,9.3
	c12.2,5.5,24.6,10.6,38,13.2c-0.2,0.6-0.8,1.1-1.5,1.1c-12.1,2.1-24.2,4.7-36.2,6.9c-12.5,2.4-25.4,2.3-37.9-0.2
	c-0.9-0.1-1.7-0.4-2.4-0.9c0.3-1.4,0.8-2.7,1.4-4c3.3-8.2,6.8-16.3,9.9-24.5C187.9,427,190.3,418.2,191.8,409.3L191.8,409.3z
	 M144.6,498.2c-0.3,3.2-1.4,6.2-2.1,9.3c-0.6,2.5-2.8,2-4.9,2.6c0.6-4,2.1-7.2,3.2-10.5c2.6-7.1,5.6-14,9-20.7
	c4.2-8.7,8-17.5,12.5-26c4.3-8.3,8.4-16.6,12.6-25c3.7-7.4,7.2-14.8,10.9-22.2c0.5-1.1,1.2-2,2.1-2.7c-0.2,1.8-0.3,3.5-0.7,5.3
	c-1.1,5-2.4,10-4,14.9c-1.9,6-5,11.5-8,17c-6.8,12.4-13.9,24.7-20.8,37.1c-2.9,5.3-5.6,10.7-8.3,16.1
	C145.3,494.9,144.8,496.5,144.6,498.2L144.6,498.2z M148,504.2c-0.6-2.4,0.4-4.4,1.5-6.4c0.5-1,1.7-0.9,2.6-1.2
	c10.5-3.4,21.2-6,32.1-7.9c10.1-1.6,20.1-3.6,30.2-5.1c19-2.8,37.9-5.7,57.2-5.5c6.5,0,12.9,0.6,19.3,1.2c9.2,0.8,18.4,1.6,27.6,2.8
	c5.4,0.6,10.7,1.6,15.9,3c-5-0.2-9.9-0.5-14.9-0.7c-15.6-0.8-31.2-1.3-46.8-0.9c-13.3,0.4-26.6,1.2-39.8,2.8s-26.6,3.5-39.8,5.9
	c-14.2,2.6-27.9,6.9-41.6,11.2C150.4,503.8,149.4,504.4,148,504.2L148,504.2z M395.3,504.5l-4.3-1l0,0c-1.5-0.3-4-0.8-6.5-1.3
	c-0.5-0.1-1-0.2-1.6-0.3c-14.2-2.5-28.3-5.4-42.5-7.3c-10.9-1.5-21.8-1.6-32.7-1.4c-13.4,0.2-26.8,1.7-40.2,2.1
	c-13.7,0.4-27.4,1.1-41.1,1.9c-8.2,0.5-16.4,1.5-24.6,2.6c-14.1,1.9-28.1,3.7-42.5,5.6c0.7-0.7,1.6-1.2,2.6-1.3
	c18.4-4.7,36.8-8.9,55.7-11.4c7.5-1,14.9-2.3,22.4-3c14.8-1.5,29.7-2.1,44.6-1.8c15.2,0.3,30.4,0.7,45.6,1.4
	c7.2,0.3,14.4,1.4,21.6,2.3c9.3,1.1,18.5,2,27.7,4.1c3,0.7,6,1.3,9,2.1c0.3,0.1,0.7,0.1,1,0.1c2.1,0.5,4.2,0.9,5.7,1.2
	c2.1,0.4,4.1,1.1,5.9,2C399.8,504.4,398.3,505.2,395.3,504.5L395.3,504.5z M453.3,506c-7.8-1.2-15.4-3.5-23.5-3s-15.6,2.3-23.4,3.7
	c-0.4-1,0.3-1.2,0.7-1.5c6.3-5,12.8-9.7,19.5-14.1c1.2-1,3-1.2,4.4-0.4c7.6,3.9,14.8,8.5,21.5,13.7C453,504.7,453.6,505,453.3,506
	L453.3,506z M452,495.4c2.2-2.2,10.2-5.8,12.9-7c19.2-8.8,39.5-15.2,60.4-18.9c10.8-1.9,21.5-3.8,32.4-4.5
	c8.9-0.6,17.9-0.5,26.8-0.5c14.3,0,28.5,1.5,42.7,3.4c8.4,1.1,16.5,3.5,24.7,5.5c9.5,2.3,18.9,4.6,28.5,6c3.4,0.6,6.9,0.9,10.4,0.9
	c3.2-0.1,4.3-1.4,3.6-4.6c-0.6-2.7-1.5-5.3-2.2-8c-0.2-0.9-1-1.8-0.1-3.2l11.7,20.4c-1.5,0.5-3,0.8-4.6,0.8
	c-6.3,0.3-12.5,0-18.7-0.7c-15-1.5-29.7-5-44.5-7.8c-11.7-2.2-23.3-4.7-35.2-6.4c-11.6-1.6-23.3-1.9-35.1-1.9
	c-24-0.1-47.4,4.3-70.4,10.6c-9.9,2.8-19.6,6.5-28.8,11.1c-0.9,0.4-4.4,2.1-5.5,2.8c-1.5,0.9-3.2,1.6-4.7,2.5S453.4,497.1,452,495.4
	z M458.8,500.7c1.6-1.5,3.8-2.1,5.6-3.1c0.9-0.5,4.3-2,5.2-2.3c13.8-5.7,28.2-9.7,43-11.7c9.8-1.4,19.8-2.1,29.7-2.2
	c19.6-0.1,39.1,1,58.6,3.2c4.7,0.4,9.3,1.3,13.7,2.8c-2.9-0.2-5.8-0.5-8.8-0.8c-20.7-2-41.3-4.1-62.1-3.2
	c-9.6,0.6-19.2,1.9-28.6,3.8c-4.5,0.9-9,1.8-13.4,2.7c-9.3,1.9-18,5.3-26.7,9l0,0c-1.6,0.7-3.6,1.3-5.6,2.2l-0.2,0.1h-0.1
	c0,0-0.1,0-0.1,0.1c-0.2,0.1-0.4,0.2-0.5,0.3c-0.5,0.3-1.1,0.5-1.6,0.7C462.7,504.3,462.4,504.2,458.8,500.7L458.8,500.7z
	 M598.2,499.9c-19.4-3.9-39.2-5.3-59-4.4c-19.3,0.9-38.3,4.3-56.7,10c-0.9,0.3-4.6,1.3-5.9,1.9s-2.6,0.9-3.8,1.5
	c-1.9,1.3-4.4,0.8-5.6-1.1c0,0,0,0,0,0c1.3-1.6,3.2-2,4.9-2.9l0,0c1.5-0.7,4.2-1.7,5.8-2.3l1-0.4c11.2-4.1,22.7-7.5,34.3-10.2
	c6-1.4,12.2-1.5,18.4-1.8c22.6-1.1,44.8,1,66.5,8.1c1.9,0.5,3.8,1.3,5.6,2.2C601.7,500.6,599.9,500.4,598.2,499.9L598.2,499.9z
	 M723.4,506.6c-0.7,0.1-1.4,0.2-2.1,0.2c-8.2,0.5-16.5,0.5-24.7-0.2c-7.9-0.5-15.9-0.5-23.8-0.1c-7.1,0.4-14.1-0.6-21.1-1.4
	c-15-1.6-29.6-5.6-44.3-9c-8.6-2-17.1-4.4-25.7-6.2c-1-0.2-1.9-0.5-2.8-0.8c0-0.1,0-0.2,0-0.3c4.3,0.3,8.7,0.6,13,1
	c9.4,0.8,18.8,1.2,28.2,2.2c10,1.1,19.8,2.9,29.7,4.6c14.8,2.6,29.7,5.3,44.6,7.3c9.1,1.4,18.4,1.8,27.6,1.2c0.5,0,1-0.2,1.4,0.1
	c0.2,0.2,0.4,0.4,0.4,0.7C723.8,506.2,723.7,506.5,723.4,506.6L723.4,506.6z"/>
<path class="st3" d="M789,439.8c-2,0.2-3.8,0.5-5.6,0.8c-5,0.8-9,1.5-12.8,2.3c-6.8,1.5-10.9,6.1-12.1,13.3
	c-0.7,4.7-1.2,9.5-1.7,13.7c-0.2,1.6-0.3,3.2-0.5,4.8c-0.1,0.3-0.1,0.7-0.1,1l-0.1-1c-0.5-5.2-1-10.5-1.7-15.8
	c-0.3-2.1-0.7-4.1-1.4-6.1c-1.2-4.2-4.2-7.5-8.3-9c-3.8-1.4-7.7-2.3-11.7-2.8l-9.8-1.2l3.4-0.5c4.5-0.6,9.3-1.3,13.9-2
	c3-0.5,5.8-1.7,8.2-3.6c2.5-2.2,4.1-5.2,4.7-8.4c0.8-3.5,1.5-7.2,2.2-12.1c0.2-1.6,0.4-3.3,0.5-4.9l0.1,0.8
	c0.5,5.2,1.3,10.4,2.4,15.5c1.6,7,5.9,11.4,12.5,12.7c4.3,0.8,8.8,1.5,13,2.1l0.7,0.1C786.2,439.5,787.6,439.6,789,439.8z"/>
<path class="st3" d="M129.5,475.9c-2,0.2-3.8,0.5-5.6,0.8c-5,0.8-9,1.5-12.8,2.3c-6.8,1.5-10.9,6.1-12.1,13.3
	c-0.7,4.7-1.3,9.5-1.7,13.7c-0.2,1.6-0.3,3.2-0.5,4.8c-0.1,0.3-0.1,0.7-0.1,1l-0.1-1c-0.6-5.2-1-10.5-1.7-15.8
	c-0.3-2.1-0.7-4.1-1.4-6.1c-1.1-4.2-4.2-7.5-8.3-9c-3.8-1.4-7.7-2.3-11.6-2.8l-9.8-1.3l3.4-0.5c4.5-0.6,9.3-1.2,13.9-2
	c3-0.4,5.8-1.7,8.2-3.6c2.5-2.2,4.1-5.2,4.7-8.4c0.8-3.5,1.5-7.2,2.2-12.1c0.2-1.6,0.4-3.3,0.6-4.9l0.1,0.8
	c0.5,5.2,1.3,10.4,2.4,15.5c1.6,7,5.8,11.4,12.5,12.7c4.3,0.8,8.8,1.5,13,2.1l0.7,0.1C126.7,475.6,128.1,475.8,129.5,475.9z"/>
<path class="st2" d="M838,472.5c-1.2,0.1-2.3,0.3-3.5,0.5c-3.1,0.5-5.6,0.9-7.9,1.4c-4.2,1-6.8,3.8-7.5,8.3c-0.4,3-0.8,5.9-1.1,8.5
	c-0.1,1-0.2,2-0.3,3c0,0.2,0,0.4,0,0.6l-0.1-0.6c-0.3-3.2-0.7-6.5-1-9.8c-0.2-1.3-0.5-2.5-0.9-3.8c-0.7-2.6-2.6-4.7-5.2-5.6
	c-2.3-0.9-4.8-1.4-7.2-1.7l-6.1-0.8l2.1-0.3c2.8-0.4,5.8-0.8,8.7-1.3c1.9-0.3,3.6-1.1,5.1-2.2c1.6-1.4,2.6-3.2,3-5.2
	c0.5-2.2,0.9-4.5,1.3-7.5c0.1-1,0.3-2,0.3-3v0.5c0.3,3.2,0.8,6.4,1.5,9.6c1,4.4,3.6,7.1,7.8,7.9c2.7,0.5,5.5,0.9,8.1,1.3h0.4
	C836.3,472.3,837.2,472.4,838,472.5z"/>
<path class="st2" d="M62.1,453.1c-1.2,0.1-2.3,0.3-3.5,0.5c-3.1,0.5-5.6,0.9-7.9,1.4c-4.2,1-6.8,3.8-7.5,8.3
	c-0.4,2.9-0.8,5.9-1.1,8.5c-0.1,1-0.2,2-0.3,3c0,0.2-0.1,0.4,0,0.6l-0.1-0.6c-0.3-3.2-0.7-6.5-1-9.8c-0.2-1.3-0.5-2.5-0.9-3.8
	c-0.7-2.6-2.6-4.7-5.2-5.6c-2.3-0.9-4.8-1.4-7.2-1.7l-6.1-0.8l2.1-0.3c2.8-0.4,5.8-0.8,8.7-1.3c1.9-0.3,3.6-1.1,5.1-2.2
	c1.6-1.4,2.6-3.2,3-5.2c0.5-2.2,0.9-4.5,1.3-7.5c0.1-1,0.3-2,0.3-3l0,0.5c0.3,3.2,0.8,6.4,1.5,9.6c1,4.4,3.6,7.1,7.8,7.9
	c2.7,0.5,5.5,0.9,8.1,1.3h0.4C60.4,453,61.3,453,62.1,453.1z"/>
</svg>
